Coordinates
nRows=117
nColumns=2
inDegrees=yes
endheader
time	ankle_angle_r	
2.9375	 -4.837195	
3	 -4.839517	
3.0625	 -4.824488	
3.125	 -4.829528	
3.1875	 -4.821082	
3.25	 -4.796377	
3.3125	 -4.812964	
3.375	 -4.817636	
3.4375	 -4.790205	
3.5	 -4.794483	
3.5625	 -4.815892	
3.625	 -4.832530	
3.6875	 -4.831659	
3.75	 -4.805388	
3.8125	 -4.798874	
3.875	 -4.817816	
3.9375	 -4.827664	
4	 -4.814076	
4.0625	 -4.791583	
4.125	 -4.803571	
4.1875	 -4.821477	
4.25	 -4.775389	
4.3125	 -4.724105	
4.375	 -4.762284	
4.4375	 -4.851765	
4.5	 -4.870911	
4.5625	 -4.821869	
4.625	 -4.819975	
4.6875	 -4.814186	
4.75	 -4.761682	
4.8125	 -4.783069	
4.875	 -4.825538	
4.9375	 -4.798867	
5	 -4.786361	
5.0625	 -4.792430	
5.125	 -4.755361	
5.1875	 -4.694734	
5.25	 -4.672457	
5.3125	 -4.688352	
5.375	 -4.669404	
5.4375	 -4.635239	
5.5	 -4.651414	
5.5625	 -4.697970	
5.625	 -4.732486	
5.6875	 -4.724090	
5.75	 -4.712593	
5.8125	 -4.739003	
5.875	 -4.743993	
5.9375	 -4.743836	
6	 -4.793873	
6.0625	 -4.828356	
6.125	 -4.810437	
6.1875	 -4.791773	
6.25	 -4.774292	
6.3125	 -4.754422	
6.375	 -4.784288	
6.4375	 -4.828516	
6.5	 -4.811378	
6.5625	 -4.786496	
6.625	 -4.810371	
6.6875	 -4.829288	
6.75	 -4.823920	
6.8125	 -4.821589	
6.875	 -4.810470	
6.9375	 -4.813668	
7	 -4.846022	
7.0625	 -4.835773	
7.125	 -4.797916	
7.1875	 -4.833042	
7.25	 -4.875670	
7.3125	 -4.843265	
7.375	 -4.808324	
7.4375	 -4.805030	
7.5	 -4.836550	
7.5625	 -4.851810	
7.625	 -4.790483	
7.6875	 -4.771816	
7.75	 -4.795350	
7.8125	 -4.758854	
7.875	 -4.732985	
7.9375	 -4.732556	
8	 -4.743374	
8.0625	 -4.781589	
8.125	 -4.801740	
8.1875	 -4.793860	
8.25	 -4.756978	
8.3125	 -4.728931	
8.375	 -4.746415	
8.4375	 -4.789289	
8.5	 -4.864032	
8.5625	 -4.907309	
8.625	 -4.873044	
8.6875	 -4.838948	
8.75	 -4.839860	
8.8125	 -4.848040	
8.875	 -4.814118	
8.9375	 -4.768994	
9	 -4.816268	
9.0625	 -4.872935	
9.125	 -4.853507	
9.1875	 -4.853381	
9.25	 -4.849083	
9.3125	 -4.790948	
9.375	 -4.771062	
9.4375	 -4.794262	
9.5	 -4.823808	
9.5625	 -4.869621	
9.625	 -4.880542	
9.6875	 -4.853662	
9.75	 -4.842530	
9.8125	 -4.830574	
9.875	 -4.791584	
9.9375	 -4.751566	
10	 -4.774194	
10.0625	 -4.850485	
10.125	 -4.901454	
10.1875	 -4.922728	
